<svg width="1200" height="420" viewBox="0 0 1200 420" fill="none" xmlns="http://www.w3.org/2000/svg">
  <defs>
    <linearGradient id="bg" x1="0" y1="0" x2="1200" y2="420" gradientUnits="userSpaceOnUse">
      <stop stop-color="#070A12"/>
      <stop offset="0.48" stop-color="#0C1321"/>
      <stop offset="1" stop-color="#090C16"/>
    </linearGradient>
    <linearGradient id="signal" x1="116" y1="0" x2="1060" y2="0" gradientUnits="userSpaceOnUse">
      <stop stop-color="#5EEAD4"/>
      <stop offset="0.52" stop-color="#7DD3FC"/>
      <stop offset="1" stop-color="#C4B5FD"/>
    </linearGradient>
    <radialGradient id="glow" cx="0" cy="0" r="1" gradientUnits="userSpaceOnUse" gradientTransform="translate(976 86) rotate(140) scale(390 250)">
      <stop stop-color="#5EEAD4" stop-opacity="0.18"/>
      <stop offset="1" stop-color="#5EEAD4" stop-opacity="0"/>
    </radialGradient>
    <filter id="soft" x="-40%" y="-40%" width="180%" height="180%">
      <feGaussianBlur stdDeviation="18"/>
    </filter>
    <pattern id="grid" width="42" height="42" patternUnits="userSpaceOnUse">
      <path d="M 42 0 L 0 0 0 42" fill="none" stroke="#8BA3C7" stroke-opacity="0.07" stroke-width="1"/>
    </pattern>
  </defs>

  <rect width="1200" height="420" rx="28" fill="url(#bg)"/>
  <rect width="1200" height="420" rx="28" fill="url(#grid)"/>
  <rect width="1200" height="420" rx="28" fill="url(#glow)"/>

  <g opacity="0.85">
    <circle cx="965" cy="122" r="78" stroke="#5EEAD4" stroke-opacity="0.22"/>
    <circle cx="965" cy="122" r="118" stroke="#7DD3FC" stroke-opacity="0.12"/>
    <circle cx="965" cy="122" r="160" stroke="#C4B5FD" stroke-opacity="0.08"/>
    <path d="M790 277C842 235 885 269 924 233C959 201 991 232 1040 194" stroke="url(#signal)" stroke-opacity="0.62" stroke-width="2"/>
    <circle cx="790" cy="277" r="5" fill="#5EEAD4"/>
    <circle cx="924" cy="233" r="5" fill="#7DD3FC"/>
    <circle cx="1040" cy="194" r="5" fill="#C4B5FD"/>
  </g>

  <g opacity="0.9">
    <path d="M90 74H287" stroke="url(#signal)" stroke-width="3"/>
    <circle cx="90" cy="74" r="4" fill="#5EEAD4"/>
  </g>

  <text x="90" y="135" fill="#F8FAFC" font-family="Inter, ui-sans-serif, system-ui, -apple-system, BlinkMacSystemFont, Segoe UI, sans-serif" font-size="54" font-weight="700" letter-spacing="-1.4">Niloufar Rabiee</text>
  <text x="92" y="183" fill="#A9B8CF" font-family="Inter, ui-sans-serif, system-ui, -apple-system, BlinkMacSystemFont, Segoe UI, sans-serif" font-size="21" letter-spacing="1.3">ARCHITECT × AI RESEARCHER × APPLE DEVELOPER</text>

  <text x="92" y="244" fill="#D6E2F2" font-family="Inter, ui-sans-serif, system-ui, -apple-system, BlinkMacSystemFont, Segoe UI, sans-serif" font-size="24" font-weight="500">Designing interfaces between</text>
  <text x="92" y="279" fill="url(#signal)" font-family="Inter, ui-sans-serif, system-ui, -apple-system, BlinkMacSystemFont, Segoe UI, sans-serif" font-size="24" font-weight="650">humans · emotion · intelligence · space</text>

  <g transform="translate(92 328)">
    <rect width="152" height="38" rx="19" fill="#5EEAD4" fill-opacity="0.08" stroke="#5EEAD4" stroke-opacity="0.34"/>
    <text x="76" y="24.5" text-anchor="middle" fill="#9FE8DD" font-family="Inter, ui-sans-serif, system-ui, sans-serif" font-size="13" font-weight="600" letter-spacing="0.8">HUMAN-CENTERED</text>
    <rect x="164" width="114" height="38" rx="19" fill="#7DD3FC" fill-opacity="0.08" stroke="#7DD3FC" stroke-opacity="0.34"/>
    <text x="221" y="24.5" text-anchor="middle" fill="#B8E3F8" font-family="Inter, ui-sans-serif, system-ui, sans-serif" font-size="13" font-weight="600" letter-spacing="0.8">SPATIAL</text>
    <rect x="290" width="122" height="38" rx="19" fill="#C4B5FD" fill-opacity="0.08" stroke="#C4B5FD" stroke-opacity="0.34"/>
    <text x="351" y="24.5" text-anchor="middle" fill="#D9D1FE" font-family="Inter, ui-sans-serif, system-ui, sans-serif" font-size="13" font-weight="600" letter-spacing="0.8">AFFECTIVE AI</text>
  </g>

  <rect x="1" y="1" width="1198" height="418" rx="27" stroke="#E2E8F0" stroke-opacity="0.08"/>
</svg>