<svg width="1200" height="492" viewBox="0 0 1200 492" fill="none" xmlns="http://www.w3.org/2000/svg">
  <!-- data-fingerprint: 4c0855cd08826e0a -->
  <defs>
    <linearGradient id="bg" x1="0" y1="0" x2="1200" y2="492" gradientUnits="userSpaceOnUse">
      <stop stop-color="#050A14"/>
      <stop offset="1" stop-color="#0D0817"/>
    </linearGradient>
    <pattern id="grid" width="42" height="42" patternUnits="userSpaceOnUse">
      <path d="M42 0H0V42" stroke="#94A3B8" stroke-opacity=".03"/>
    </pattern>
  </defs>

  <rect width="1200" height="492" rx="28" fill="url(#bg)"/>
  <rect width="1200" height="492" rx="28" fill="url(#grid)"/>

  <text x="58" y="48" fill="#708198" font-family="ui-monospace,SFMono-Regular,Menlo,monospace" font-size="11" font-weight="700" letter-spacing="2.2">PUBLIC CODE SNAPSHOT</text>
  <text x="1140" y="48" text-anchor="end" fill="#5B506C" font-family="Georgia,serif" font-size="12.5" font-style="italic">auto-updated from public repositories</text>

  <g transform="translate(245 256)">
    <circle r="108" fill="#09111D" stroke="#E2E8F0" stroke-opacity=".06"/>
    <circle r="82" fill="none" stroke="#182333" stroke-width="26"/>
    <circle r="82" fill="none" stroke="#5EEAD4" stroke-width="26" stroke-dasharray="319.02 196.21" stroke-dashoffset="-0.00" transform="rotate(-90)"/>
    <circle r="82" fill="none" stroke="#7DD3FC" stroke-width="26" stroke-dasharray="119.01 396.21" stroke-dashoffset="-319.02" transform="rotate(-90)"/>
    <circle r="82" fill="none" stroke="#C084FC" stroke-width="26" stroke-dasharray="28.66 486.57" stroke-dashoffset="-438.03" transform="rotate(-90)"/>
    <circle r="82" fill="none" stroke="#F0ABFC" stroke-width="26" stroke-dasharray="20.47 494.75" stroke-dashoffset="-466.68" transform="rotate(-90)"/>
    <circle r="82" fill="none" stroke="#A7F3D0" stroke-width="26" stroke-dasharray="11.70 503.52" stroke-dashoffset="-487.15" transform="rotate(-90)"/>
    <circle r="82" fill="none" stroke="#CBD5E1" stroke-width="26" stroke-dasharray="4.39 510.84" stroke-dashoffset="-498.85" transform="rotate(-90)"/>
    <circle r="82" fill="none" stroke="#93C5FD" stroke-width="26" stroke-dasharray="4.09 511.13" stroke-dashoffset="-503.23" transform="rotate(-90)"/>
    <circle r="82" fill="none" stroke="#FDE68A" stroke-width="26" stroke-dasharray="4.09 511.13" stroke-dashoffset="-507.33" transform="rotate(-90)"/>
    <circle r="82" fill="none" stroke="#FDBA74" stroke-width="26" stroke-dasharray="3.80 511.42" stroke-dashoffset="-511.42" transform="rotate(-90)"/>

    <text x="0" y="-4" text-anchor="middle" fill="#F8FAFC" font-family="Inter,Arial,sans-serif" font-size="38" font-weight="800">9</text>
    <text x="0" y="22" text-anchor="middle" fill="#8FA0B7" font-family="Inter,Arial,sans-serif" font-size="12" font-weight="600" letter-spacing="1.2">PUBLIC REPOS</text>
  </g>

  <text x="58" y="474" fill="#5E7088" font-family="Inter,Arial,sans-serif" font-size="11">Repository footprint by GitHub-reported repository size</text>

  <g font-family="Inter,Arial,sans-serif">
    <text x="455" y="88" fill="#F8FAFC" font-size="18" font-weight="750">Public repository footprint</text>
    <text x="455" y="112" fill="#8798AE" font-size="12.5">Relative size across public repositories</text>
    <g transform="translate(455 135)">
      <circle cx="5" cy="5" r="5" fill="#5EEAD4"/>
      <text x="22" y="9" fill="#DCEAF0" font-size="12.5" font-weight="650">coffeehouse</text>
      <text x="280" y="9" fill="#8798AE" font-size="12" text-anchor="end">61.9%</text>
      <rect x="310" y="-1" width="290" height="12" rx="6" fill="#101B29"/>
      <rect x="310" y="-1" width="179.6" height="12" rx="6" fill="#5EEAD4" fill-opacity=".82"/>
    </g>
    <g transform="translate(455 173)">
      <circle cx="5" cy="5" r="5" fill="#7DD3FC"/>
      <text x="22" y="9" fill="#DCEAF0" font-size="12.5" font-weight="650">Carousel</text>
      <text x="280" y="9" fill="#8798AE" font-size="12" text-anchor="end">23.1%</text>
      <rect x="310" y="-1" width="290" height="12" rx="6" fill="#101B29"/>
      <rect x="310" y="-1" width="67.0" height="12" rx="6" fill="#7DD3FC" fill-opacity=".82"/>
    </g>
    <g transform="translate(455 211)">
      <circle cx="5" cy="5" r="5" fill="#C084FC"/>
      <text x="22" y="9" fill="#DCEAF0" font-size="12.5" font-weight="650">NiloufarRabiee</text>
      <text x="280" y="9" fill="#8798AE" font-size="12" text-anchor="end">5.6%</text>
      <rect x="310" y="-1" width="290" height="12" rx="6" fill="#101B29"/>
      <rect x="310" y="-1" width="16.1" height="12" rx="6" fill="#C084FC" fill-opacity=".82"/>
    </g>
    <g transform="translate(455 249)">
      <circle cx="5" cy="5" r="5" fill="#F0ABFC"/>
      <text x="22" y="9" fill="#DCEAF0" font-size="12.5" font-weight="650">CoreMotion</text>
      <text x="280" y="9" fill="#8798AE" font-size="12" text-anchor="end">4.0%</text>
      <rect x="310" y="-1" width="290" height="12" rx="6" fill="#101B29"/>
      <rect x="310" y="-1" width="11.5" height="12" rx="6" fill="#F0ABFC" fill-opacity=".82"/>
    </g>
    <g transform="translate(455 287)">
      <circle cx="5" cy="5" r="5" fill="#A7F3D0"/>
      <text x="22" y="9" fill="#DCEAF0" font-size="12.5" font-weight="650">RotatingLogo</text>
      <text x="280" y="9" fill="#8798AE" font-size="12" text-anchor="end">2.3%</text>
      <rect x="310" y="-1" width="290" height="12" rx="6" fill="#101B29"/>
      <rect x="310" y="-1" width="6.6" height="12" rx="6" fill="#A7F3D0" fill-opacity=".82"/>
    </g>
    <g transform="translate(455 325)">
      <circle cx="5" cy="5" r="5" fill="#CBD5E1"/>
      <text x="22" y="9" fill="#DCEAF0" font-size="12.5" font-weight="650">DonationApp</text>
      <text x="280" y="9" fill="#8798AE" font-size="12" text-anchor="end">0.9%</text>
      <rect x="310" y="-1" width="290" height="12" rx="6" fill="#101B29"/>
      <rect x="310" y="-1" width="2.5" height="12" rx="6" fill="#CBD5E1" fill-opacity=".82"/>
    </g>
    <g transform="translate(455 363)">
      <circle cx="5" cy="5" r="5" fill="#93C5FD"/>
      <text x="22" y="9" fill="#DCEAF0" font-size="12.5" font-weight="650">swiftui-copy-button-toast</text>
      <text x="280" y="9" fill="#8798AE" font-size="12" text-anchor="end">0.8%</text>
      <rect x="310" y="-1" width="290" height="12" rx="6" fill="#101B29"/>
      <rect x="310" y="-1" width="2.3" height="12" rx="6" fill="#93C5FD" fill-opacity=".82"/>
    </g>
    <g transform="translate(455 401)">
      <circle cx="5" cy="5" r="5" fill="#FDE68A"/>
      <text x="22" y="9" fill="#DCEAF0" font-size="12.5" font-weight="650">swiftui-hold-to-confirm-button</text>
      <text x="280" y="9" fill="#8798AE" font-size="12" text-anchor="end">0.8%</text>
      <rect x="310" y="-1" width="290" height="12" rx="6" fill="#101B29"/>
      <rect x="310" y="-1" width="2.3" height="12" rx="6" fill="#FDE68A" fill-opacity=".82"/>
    </g>
    <g transform="translate(455 439)">
      <circle cx="5" cy="5" r="5" fill="#FDBA74"/>
      <text x="22" y="9" fill="#DCEAF0" font-size="12.5" font-weight="650">swiftui-shimmer-placeholder</text>
      <text x="280" y="9" fill="#8798AE" font-size="12" text-anchor="end">0.7%</text>
      <rect x="310" y="-1" width="290" height="12" rx="6" fill="#101B29"/>
      <rect x="310" y="-1" width="2.1" height="12" rx="6" fill="#FDBA74" fill-opacity=".82"/>
    </g>
  </g>

  <rect x="1" y="1" width="1198" height="490" rx="27" stroke="#E2E8F0" stroke-opacity=".06"/>
</svg>
