<svg width="1200" height="420" viewBox="0 0 1200 420" fill="none" xmlns="http://www.w3.org/2000/svg">
  <defs>
    <linearGradient id="bg" x1="0" y1="0" x2="1200" y2="420" gradientUnits="userSpaceOnUse">
      <stop stop-color="#050A14"/>
      <stop offset="1" stop-color="#0A1020"/>
    </linearGradient>
    <linearGradient id="line" x1="160" y1="0" x2="1040" y2="0" gradientUnits="userSpaceOnUse">
      <stop stop-color="#5EEAD4"/>
      <stop offset="0.5" stop-color="#7DD3FC"/>
      <stop offset="1" stop-color="#C084FC"/>
    </linearGradient>
  </defs>

  <rect width="1200" height="420" rx="28" fill="url(#bg)"/>

  <text x="60" y="42" fill="#6B7C93" font-family="Arial, sans-serif" font-size="12" font-weight="700" letter-spacing="2">
    NILOUFAR RABIEE / PUBLIC RESEARCH MAP
  </text>

  <!-- center -->
  <circle cx="600" cy="210" r="56" fill="#09111F" stroke="url(#line)" stroke-width="1.6"/>
  <text x="600" y="202" text-anchor="middle" fill="#F8FAFC" font-family="Arial, sans-serif" font-size="18" font-weight="700">
    Niloufar
  </text>
  <text x="600" y="224" text-anchor="middle" fill="#94A3B8" font-family="Arial, sans-serif" font-size="11" font-weight="600" letter-spacing="1.2">
    RESEARCH CORE
  </text>

  <!-- lines -->
  <line x1="600" y1="210" x2="340" y2="100" stroke="url(#line)" stroke-opacity="0.35"/>
  <line x1="600" y1="210" x2="860" y2="100" stroke="url(#line)" stroke-opacity="0.35"/>
  <line x1="600" y1="210" x2="980" y2="210" stroke="url(#line)" stroke-opacity="0.35"/>
  <line x1="600" y1="210" x2="860" y2="320" stroke="url(#line)" stroke-opacity="0.35"/>
  <line x1="600" y1="210" x2="340" y2="320" stroke="url(#line)" stroke-opacity="0.35"/>
  <line x1="600" y1="210" x2="220" y2="210" stroke="url(#line)" stroke-opacity="0.35"/>

  <!-- nodes -->
  <g font-family="Arial, sans-serif">
    <rect x="170" y="176" width="180" height="68" rx="16" fill="#0B1422" stroke="#5EEAD4" stroke-opacity="0.3"/>
    <text x="260" y="202" text-anchor="middle" fill="#A7F3D0" font-size="13" font-weight="700">SPATIAL SYSTEMS</text>
    <text x="260" y="223" text-anchor="middle" fill="#94A3B8" font-size="11">architecture · urban design</text>

    <rect x="250" y="66" width="210" height="68" rx="16" fill="#0B1422" stroke="#7DD3FC" stroke-opacity="0.3"/>
    <text x="355" y="92" text-anchor="middle" fill="#BAE6FD" font-size="13" font-weight="700">HUMAN-CENTERED AI</text>
    <text x="355" y="113" text-anchor="middle" fill="#94A3B8" font-size="11">behavior · interaction</text>

    <rect x="740" y="66" width="190" height="68" rx="16" fill="#0B1422" stroke="#C084FC" stroke-opacity="0.3"/>
    <text x="835" y="92" text-anchor="middle" fill="#E9D5FF" font-size="13" font-weight="700">INTERACTION DESIGN</text>
    <text x="835" y="113" text-anchor="middle" fill="#94A3B8" font-size="11">interfaces · experience</text>

    <rect x="860" y="176" width="180" height="68" rx="16" fill="#0B1422" stroke="#7DD3FC" stroke-opacity="0.3"/>
    <text x="950" y="202" text-anchor="middle" fill="#BAE6FD" font-size="13" font-weight="700">APPLE PROTOTYPES</text>
    <text x="950" y="223" text-anchor="middle" fill="#94A3B8" font-size="11">SwiftUI · experiments</text>

    <rect x="730" y="286" width="210" height="68" rx="16" fill="#0B1422" stroke="#C084FC" stroke-opacity="0.3"/>
    <text x="835" y="312" text-anchor="middle" fill="#E9D5FF" font-size="13" font-weight="700">INDEPENDENT RESEARCH</text>
    <text x="835" y="333" text-anchor="middle" fill="#94A3B8" font-size="11">questions · papers · concepts</text>

    <rect x="250" y="286" width="190" height="68" rx="16" fill="#0B1422" stroke="#5EEAD4" stroke-opacity="0.3"/>
    <text x="345" y="312" text-anchor="middle" fill="#A7F3D0" font-size="13" font-weight="700">EXPERIMENTAL WORK</text>
    <text x="345" y="333" text-anchor="middle" fill="#94A3B8" font-size="11">small products · tests</text>
  </g>

  <rect x="1" y="1" width="1198" height="418" rx="27" stroke="#E2E8F0" stroke-opacity="0.06"/>
</svg>