<svg width="1200" height="568" viewBox="0 0 1200 568" fill="none" xmlns="http://www.w3.org/2000/svg">
  <!-- data-fingerprint: 5810757f2879422a -->
  <defs>
    <linearGradient id="bg" x1="0" y1="0" x2="1200" y2="568" gradientUnits="userSpaceOnUse">
      <stop stop-color="#050A14"/>
      <stop offset="1" stop-color="#0D0817"/>
    </linearGradient>
    <pattern id="grid" width="42" height="42" patternUnits="userSpaceOnUse">
      <path d="M42 0H0V42" stroke="#94A3B8" stroke-opacity=".03"/>
    </pattern>
  </defs>

  <rect width="1200" height="568" rx="28" fill="url(#bg)"/>
  <rect width="1200" height="568" rx="28" fill="url(#grid)"/>

  <text x="58" y="48" fill="#708198" font-family="ui-monospace,SFMono-Regular,Menlo,monospace" font-size="11" font-weight="700" letter-spacing="2.2">PUBLIC CODE SNAPSHOT</text>
  <text x="1140" y="48" text-anchor="end" fill="#5B506C" font-family="Georgia,serif" font-size="12.5" font-style="italic">auto-updated from public repositories</text>

  <g transform="translate(245 294)">
    <circle r="108" fill="#09111D" stroke="#E2E8F0" stroke-opacity=".06"/>
    <circle r="82" fill="none" stroke="#182333" stroke-width="26"/>
    <circle r="82" fill="none" stroke="#5EEAD4" stroke-width="26" stroke-dasharray="316.15 199.08" stroke-dashoffset="-0.00" transform="rotate(-90)"/>
    <circle r="82" fill="none" stroke="#7DD3FC" stroke-width="26" stroke-dasharray="117.94 397.28" stroke-dashoffset="-316.15" transform="rotate(-90)"/>
    <circle r="82" fill="none" stroke="#C084FC" stroke-width="26" stroke-dasharray="29.27 485.95" stroke-dashoffset="-434.08" transform="rotate(-90)"/>
    <circle r="82" fill="none" stroke="#F0ABFC" stroke-width="26" stroke-dasharray="20.28 494.94" stroke-dashoffset="-463.35" transform="rotate(-90)"/>
    <circle r="82" fill="none" stroke="#A7F3D0" stroke-width="26" stroke-dasharray="11.59 503.63" stroke-dashoffset="-483.64" transform="rotate(-90)"/>
    <circle r="82" fill="none" stroke="#CBD5E1" stroke-width="26" stroke-dasharray="4.35 510.87" stroke-dashoffset="-495.23" transform="rotate(-90)"/>
    <circle r="82" fill="none" stroke="#93C5FD" stroke-width="26" stroke-dasharray="4.06 511.16" stroke-dashoffset="-499.57" transform="rotate(-90)"/>
    <circle r="82" fill="none" stroke="#FDE68A" stroke-width="26" stroke-dasharray="4.06 511.16" stroke-dashoffset="-503.63" transform="rotate(-90)"/>
    <circle r="82" fill="none" stroke="#FDBA74" stroke-width="26" stroke-dasharray="3.77 511.45" stroke-dashoffset="-507.69" transform="rotate(-90)"/>
    <circle r="82" fill="none" stroke="#FCA5A5" stroke-width="26" stroke-dasharray="3.77 511.45" stroke-dashoffset="-511.45" transform="rotate(-90)"/>

    <text x="0" y="-4" text-anchor="middle" fill="#F8FAFC" font-family="Inter,Arial,sans-serif" font-size="38" font-weight="800">11</text>
    <text x="0" y="22" text-anchor="middle" fill="#8FA0B7" font-family="Inter,Arial,sans-serif" font-size="12" font-weight="600" letter-spacing="1.2">PUBLIC REPOS</text>
  </g>

  <text x="58" y="550" fill="#5E7088" font-family="Inter,Arial,sans-serif" font-size="11">Repository footprint by GitHub-reported repository size</text>

  <g font-family="Inter,Arial,sans-serif">
    <text x="455" y="88" fill="#F8FAFC" font-size="18" font-weight="750">Public repository footprint</text>
    <text x="455" y="112" fill="#8798AE" font-size="12.5">Relative size across public repositories</text>
    <g transform="translate(455 135)">
      <circle cx="5" cy="5" r="5" fill="#5EEAD4"/>
      <text x="22" y="9" fill="#DCEAF0" font-size="12.5" font-weight="650">coffeehouse</text>
      <text x="280" y="9" fill="#8798AE" font-size="12" text-anchor="end">61.4%</text>
      <rect x="310" y="-1" width="290" height="12" rx="6" fill="#101B29"/>
      <rect x="310" y="-1" width="177.9" height="12" rx="6" fill="#5EEAD4" fill-opacity=".82"/>
    </g>
    <g transform="translate(455 173)">
      <circle cx="5" cy="5" r="5" fill="#7DD3FC"/>
      <text x="22" y="9" fill="#DCEAF0" font-size="12.5" font-weight="650">Carousel</text>
      <text x="280" y="9" fill="#8798AE" font-size="12" text-anchor="end">22.9%</text>
      <rect x="310" y="-1" width="290" height="12" rx="6" fill="#101B29"/>
      <rect x="310" y="-1" width="66.4" height="12" rx="6" fill="#7DD3FC" fill-opacity=".82"/>
    </g>
    <g transform="translate(455 211)">
      <circle cx="5" cy="5" r="5" fill="#C084FC"/>
      <text x="22" y="9" fill="#DCEAF0" font-size="12.5" font-weight="650">NiloufarRabiee</text>
      <text x="280" y="9" fill="#8798AE" font-size="12" text-anchor="end">5.7%</text>
      <rect x="310" y="-1" width="290" height="12" rx="6" fill="#101B29"/>
      <rect x="310" y="-1" width="16.5" height="12" rx="6" fill="#C084FC" fill-opacity=".82"/>
    </g>
    <g transform="translate(455 249)">
      <circle cx="5" cy="5" r="5" fill="#F0ABFC"/>
      <text x="22" y="9" fill="#DCEAF0" font-size="12.5" font-weight="650">CoreMotion</text>
      <text x="280" y="9" fill="#8798AE" font-size="12" text-anchor="end">3.9%</text>
      <rect x="310" y="-1" width="290" height="12" rx="6" fill="#101B29"/>
      <rect x="310" y="-1" width="11.4" height="12" rx="6" fill="#F0ABFC" fill-opacity=".82"/>
    </g>
    <g transform="translate(455 287)">
      <circle cx="5" cy="5" r="5" fill="#A7F3D0"/>
      <text x="22" y="9" fill="#DCEAF0" font-size="12.5" font-weight="650">RotatingLogo</text>
      <text x="280" y="9" fill="#8798AE" font-size="12" text-anchor="end">2.2%</text>
      <rect x="310" y="-1" width="290" height="12" rx="6" fill="#101B29"/>
      <rect x="310" y="-1" width="6.5" height="12" rx="6" fill="#A7F3D0" fill-opacity=".82"/>
    </g>
    <g transform="translate(455 325)">
      <circle cx="5" cy="5" r="5" fill="#CBD5E1"/>
      <text x="22" y="9" fill="#DCEAF0" font-size="12.5" font-weight="650">DonationApp</text>
      <text x="280" y="9" fill="#8798AE" font-size="12" text-anchor="end">0.8%</text>
      <rect x="310" y="-1" width="290" height="12" rx="6" fill="#101B29"/>
      <rect x="310" y="-1" width="2.4" height="12" rx="6" fill="#CBD5E1" fill-opacity=".82"/>
    </g>
    <g transform="translate(455 363)">
      <circle cx="5" cy="5" r="5" fill="#93C5FD"/>
      <text x="22" y="9" fill="#DCEAF0" font-size="12.5" font-weight="650">swiftui-copy-button-toast</text>
      <text x="280" y="9" fill="#8798AE" font-size="12" text-anchor="end">0.8%</text>
      <rect x="310" y="-1" width="290" height="12" rx="6" fill="#101B29"/>
      <rect x="310" y="-1" width="2.3" height="12" rx="6" fill="#93C5FD" fill-opacity=".82"/>
    </g>
    <g transform="translate(455 401)">
      <circle cx="5" cy="5" r="5" fill="#FDE68A"/>
      <text x="22" y="9" fill="#DCEAF0" font-size="12.5" font-weight="650">swiftui-hold-to-confirm-button</text>
      <text x="280" y="9" fill="#8798AE" font-size="12" text-anchor="end">0.8%</text>
      <rect x="310" y="-1" width="290" height="12" rx="6" fill="#101B29"/>
      <rect x="310" y="-1" width="2.3" height="12" rx="6" fill="#FDE68A" fill-opacity=".82"/>
    </g>
    <g transform="translate(455 439)">
      <circle cx="5" cy="5" r="5" fill="#FDBA74"/>
      <text x="22" y="9" fill="#DCEAF0" font-size="12.5" font-weight="650">swiftui-shimmer-placeholder</text>
      <text x="280" y="9" fill="#8798AE" font-size="12" text-anchor="end">0.7%</text>
      <rect x="310" y="-1" width="290" height="12" rx="6" fill="#101B29"/>
      <rect x="310" y="-1" width="2.1" height="12" rx="6" fill="#FDBA74" fill-opacity=".82"/>
    </g>
    <g transform="translate(455 477)">
      <circle cx="5" cy="5" r="5" fill="#FCA5A5"/>
      <text x="22" y="9" fill="#DCEAF0" font-size="12.5" font-weight="650">swiftui-typewriter-text</text>
      <text x="280" y="9" fill="#8798AE" font-size="12" text-anchor="end">0.7%</text>
      <rect x="310" y="-1" width="290" height="12" rx="6" fill="#101B29"/>
      <rect x="310" y="-1" width="2.1" height="12" rx="6" fill="#FCA5A5" fill-opacity=".82"/>
    </g>
    <g transform="translate(455 515)">
      <circle cx="5" cy="5" r="5" fill="#86EFAC"/>
      <text x="22" y="9" fill="#DCEAF0" font-size="12.5" font-weight="650">swiftui-debounced-search-field</text>
      <text x="280" y="9" fill="#8798AE" font-size="12" text-anchor="end">0.0%</text>
      <rect x="310" y="-1" width="290" height="12" rx="6" fill="#101B29"/>
    </g>
  </g>

  <rect x="1" y="1" width="1198" height="566" rx="27" stroke="#E2E8F0" stroke-opacity=".06"/>
</svg>
