<svg width="1200" height="560" viewBox="0 0 1200 560" fill="none" xmlns="http://www.w3.org/2000/svg">
<defs>
  <linearGradient id="bg" x1="80" y1="40" x2="1140" y2="530" gradientUnits="userSpaceOnUse">
    <stop stop-color="#030712"/>
    <stop offset="0.46" stop-color="#07111F"/>
    <stop offset="1" stop-color="#0B0718"/>
  </linearGradient>
  <linearGradient id="aurora" x1="130" y1="0" x2="1060" y2="0" gradientUnits="userSpaceOnUse">
    <stop stop-color="#5EEAD4"/>
    <stop offset="0.48" stop-color="#7DD3FC"/>
    <stop offset="1" stop-color="#C084FC"/>
  </linearGradient>
  <radialGradient id="coreGlow" cx="0" cy="0" r="1" gradientUnits="userSpaceOnUse" gradientTransform="translate(930 278) rotate(90) scale(230)">
    <stop stop-color="#7DD3FC" stop-opacity=".16"/>
    <stop offset=".55" stop-color="#C084FC" stop-opacity=".07"/>
    <stop offset="1" stop-color="#020617" stop-opacity="0"/>
  </radialGradient>
  <pattern id="grid" width="40" height="40" patternUnits="userSpaceOnUse">
    <path d="M40 0H0V40" stroke="#94A3B8" stroke-opacity=".045"/>
  </pattern>
</defs>

<rect width="1200" height="560" rx="32" fill="url(#bg)"/>
<rect width="1200" height="560" rx="32" fill="url(#grid)"/>
<rect width="1200" height="560" rx="32" fill="url(#coreGlow)"/>

<g opacity=".7">
  <circle cx="105" cy="77" r="1.8" fill="#F8FAFC"/>
  <circle cx="168" cy="116" r="1.2" fill="#7DD3FC"/>
  <circle cx="275" cy="69" r="1.2" fill="#C084FC"/>
  <circle cx="357" cy="111" r="1.4" fill="#F8FAFC"/>
  <circle cx="624" cy="78" r="1.3" fill="#5EEAD4"/>
  <circle cx="720" cy="119" r="1.4" fill="#F8FAFC"/>
  <circle cx="1078" cy="91" r="1.2" fill="#7DD3FC"/>
  <circle cx="1120" cy="171" r="1.2" fill="#C084FC"/>
  <circle cx="103" cy="472" r="1.2" fill="#7DD3FC"/>
  <circle cx="311" cy="493" r="1.4" fill="#F8FAFC"/>
  <circle cx="640" cy="487" r="1.2" fill="#C084FC"/>
  <circle cx="1090" cy="468" r="1.5" fill="#5EEAD4"/>
</g>

<g stroke="#CBD5E1" stroke-opacity=".16">
  <path d="M66 58H116M66 58V108"/>
  <path d="M1134 58H1084M1134 58V108"/>
  <path d="M66 502H116M66 502V452"/>
  <path d="M1134 502H1084M1134 502V452"/>
</g>

<text x="82" y="102" fill="#64748B" font-family="ui-monospace,SFMono-Regular,Menlo,monospace" font-size="12" font-weight="700" letter-spacing="2.8">NILOUFAR RABIEE / RESEARCH UNIVERSE / 2026</text>
<rect x="82" y="126" width="430" height="3" rx="1.5" fill="url(#aurora)"/>

<text x="82" y="205" fill="#F8FAFC" font-family="Inter,Arial,sans-serif" font-size="64" font-weight="800" letter-spacing="-2.3">I build systems</text>
<text x="82" y="272" fill="#F8FAFC" font-family="Inter,Arial,sans-serif" font-size="64" font-weight="800" letter-spacing="-2.3">between worlds.</text>

<text x="84" y="327" fill="#AFC0D7" font-family="Inter,Arial,sans-serif" font-size="20" font-weight="520">architecture × human–AI interaction × memory × language × speculative technology</text>

<g font-family="ui-monospace,SFMono-Regular,Menlo,monospace" font-size="11" font-weight="700" letter-spacing="1.3">
  <g transform="translate(84 374)">
    <rect width="152" height="39" rx="19.5" fill="#5EEAD4" fill-opacity=".06" stroke="#5EEAD4" stroke-opacity=".34"/>
    <text x="76" y="25" text-anchor="middle" fill="#A7F3D0">PERCEPTION</text>
  </g>
  <g transform="translate(248 374)">
    <rect width="142" height="39" rx="19.5" fill="#7DD3FC" fill-opacity=".06" stroke="#7DD3FC" stroke-opacity=".34"/>
    <text x="71" y="25" text-anchor="middle" fill="#BAE6FD">PRESENCE</text>
  </g>
  <g transform="translate(402 374)">
    <rect width="132" height="39" rx="19.5" fill="#C084FC" fill-opacity=".06" stroke="#C084FC" stroke-opacity=".34"/>
    <text x="66" y="25" text-anchor="middle" fill="#E9D5FF">AGENCY</text>
  </g>
  <g transform="translate(84 425)">
    <rect width="152" height="39" rx="19.5" fill="#7DD3FC" fill-opacity=".05" stroke="#7DD3FC" stroke-opacity=".26"/>
    <text x="76" y="25" text-anchor="middle" fill="#BAE6FD">CONTINUITY</text>
  </g>
  <g transform="translate(248 425)">
    <rect width="142" height="39" rx="19.5" fill="#C084FC" fill-opacity=".05" stroke="#C084FC" stroke-opacity=".26"/>
    <text x="71" y="25" text-anchor="middle" fill="#E9D5FF">MEANING</text>
  </g>
  <g transform="translate(402 425)">
    <rect width="132" height="39" rx="19.5" fill="#5EEAD4" fill-opacity=".05" stroke="#5EEAD4" stroke-opacity=".26"/>
    <text x="66" y="25" text-anchor="middle" fill="#A7F3D0">RESTRAINT</text>
  </g>
</g>

<g transform="translate(930 278)">
  <circle r="190" stroke="#C084FC" stroke-opacity=".08"/>
  <circle r="154" stroke="#7DD3FC" stroke-opacity=".13" stroke-dasharray="7 12"/>
  <circle r="117" stroke="#5EEAD4" stroke-opacity=".19" stroke-dasharray="3 10"/>
  <circle r="78" fill="#07111F" stroke="url(#aurora)" stroke-opacity=".75" stroke-width="1.5"/>
  <circle r="58" fill="#050A14" stroke="#E2E8F0" stroke-opacity=".09"/>
  <text x="0" y="-8" text-anchor="middle" fill="#F8FAFC" font-family="Georgia,serif" font-size="64" font-weight="700">NR</text>
  <text x="0" y="22" text-anchor="middle" fill="#71829A" font-family="ui-monospace,SFMono-Regular,Menlo,monospace" font-size="9" font-weight="700" letter-spacing="2.2">RESEARCH CORE</text>

  <g font-family="ui-monospace,SFMono-Regular,Menlo,monospace" font-size="9" font-weight="700" letter-spacing="1.1">
    <circle cx="0" cy="-154" r="5" fill="#5EEAD4"/>
    <text x="0" y="-171" text-anchor="middle" fill="#9DE8DD">ENVIRONMENT</text>

    <circle cx="145" cy="-52" r="5" fill="#7DD3FC"/>
    <text x="164" y="-48" fill="#BDE8FB">HUMAN–AI</text>

    <circle cx="117" cy="101" r="5" fill="#C084FC"/>
    <text x="137" y="105" fill="#E9D5FF">MEMORY</text>

    <circle cx="-117" cy="101" r="5" fill="#7DD3FC"/>
    <text x="-138" y="105" text-anchor="end" fill="#BAE6FD">LANGUAGE</text>

    <circle cx="-145" cy="-52" r="5" fill="#C084FC"/>
    <text x="-164" y="-48" text-anchor="end" fill="#E9D5FF">SPECULATIVE</text>
  </g>
</g>

<text x="83" y="516" fill="#53667F" font-family="ui-monospace,SFMono-Regular,Menlo,monospace" font-size="10" font-weight="700" letter-spacing="1.8">PUBLIC SURFACE / PRIVATE DEPTH / PROVENANCE FIRST</text>
<text x="1118" y="516" text-anchor="end" fill="#53667F" font-family="ui-monospace,SFMono-Regular,Menlo,monospace" font-size="10" font-weight="700" letter-spacing="1.8">NR-LAB / ATLAS 01</text>
<rect x="1" y="1" width="1198" height="558" rx="31" stroke="#E2E8F0" stroke-opacity=".08"/>
</svg>