<svg width="1200" height="560" viewBox="0 0 1200 560" fill="none" xmlns="http://www.w3.org/2000/svg">
  <defs>
    <linearGradient id="bg" x1="0" y1="0" x2="1200" y2="560" gradientUnits="userSpaceOnUse">
      <stop stop-color="#03101A"/>
      <stop offset="0.50" stop-color="#081321"/>
      <stop offset="1" stop-color="#10081C"/>
    </linearGradient>
    <linearGradient id="accent" x1="90" y1="0" x2="1110" y2="0" gradientUnits="userSpaceOnUse">
      <stop stop-color="#5EEAD4"/>
      <stop offset="0.50" stop-color="#7DD3FC"/>
      <stop offset="1" stop-color="#C084FC"/>
    </linearGradient>
    <radialGradient id="planetGlow" cx="0" cy="0" r="1" gradientUnits="userSpaceOnUse" gradientTransform="translate(972 270) rotate(90) scale(220)">
      <stop stop-color="#7DD3FC" stop-opacity=".12"/>
      <stop offset=".55" stop-color="#C084FC" stop-opacity=".07"/>
      <stop offset="1" stop-color="#020617" stop-opacity="0"/>
    </radialGradient>
    <pattern id="grid" width="44" height="44" patternUnits="userSpaceOnUse">
      <path d="M44 0H0V44" stroke="#94A3B8" stroke-opacity=".035"/>
    </pattern>
  </defs>

  <rect width="1200" height="560" rx="32" fill="url(#bg)"/>
  <rect width="1200" height="560" rx="32" fill="url(#grid)"/>
  <rect width="1200" height="560" rx="32" fill="url(#planetGlow)"/>

  <g opacity=".62">
    <circle cx="84" cy="68" r="1.2" fill="#F8FAFC"/>
    <circle cx="149" cy="112" r="1.4" fill="#5EEAD4"/>
    <circle cx="274" cy="74" r="1.0" fill="#C084FC"/>
    <circle cx="423" cy="112" r="1.2" fill="#F8FAFC"/>
    <circle cx="610" cy="72" r="1.2" fill="#7DD3FC"/>
    <circle cx="744" cy="116" r="1.2" fill="#F8FAFC"/>
    <circle cx="1088" cy="88" r="1.3" fill="#C084FC"/>
    <circle cx="1118" cy="170" r="1.1" fill="#5EEAD4"/>
    <circle cx="102" cy="472" r="1.2" fill="#7DD3FC"/>
    <circle cx="322" cy="492" r="1.2" fill="#F8FAFC"/>
    <circle cx="661" cy="486" r="1.0" fill="#C084FC"/>
    <circle cx="1104" cy="468" r="1.3" fill="#5EEAD4"/>
  </g>

  <g stroke="#CBD5E1" stroke-opacity=".14">
    <path d="M64 58H114M64 58V108"/>
    <path d="M1136 58H1086M1136 58V108"/>
    <path d="M64 502H114M64 502V452"/>
    <path d="M1136 502H1086M1136 502V452"/>
  </g>

  <text x="82" y="100" fill="#6C7D95"
        font-family="ui-monospace,SFMono-Regular,Menlo,monospace"
        font-size="12" font-weight="700" letter-spacing="2.8">
    NILOUFAR RABIEE / RESEARCH UNIVERSE / 2026
  </text>

  <rect x="82" y="126" width="440" height="3" rx="1.5" fill="url(#accent)"/>

  <text x="82" y="210" fill="#F8FAFC"
        font-family="Inter,Arial,sans-serif"
        font-size="62" font-weight="800" letter-spacing="-2.2">
    I build systems
  </text>
  <text x="82" y="278" fill="#F8FAFC"
        font-family="Inter,Arial,sans-serif"
        font-size="62" font-weight="800" letter-spacing="-2.2">
    between worlds.
  </text>

  <text x="84" y="332" fill="#AFC0D7"
        font-family="Inter,Arial,sans-serif"
        font-size="18" font-weight="520">
    architecture × human-centered AI × interaction design
  </text>

  <g font-family="ui-monospace,SFMono-Regular,Menlo,monospace"
     font-size="10.5" font-weight="700" letter-spacing="1.25">
    <g transform="translate(84 384)">
      <rect width="144" height="38" rx="19"
            fill="#5EEAD4" fill-opacity=".055"
            stroke="#5EEAD4" stroke-opacity=".28"/>
      <circle cx="20" cy="19" r="4" fill="#5EEAD4"/>
      <text x="83" y="24" text-anchor="middle" fill="#A7F3D0">PERCEPTION</text>
    </g>

    <g transform="translate(244 384)">
      <rect width="144" height="38" rx="19"
            fill="#7DD3FC" fill-opacity=".055"
            stroke="#7DD3FC" stroke-opacity=".28"/>
      <circle cx="20" cy="19" r="4" fill="#7DD3FC"/>
      <text x="82" y="24" text-anchor="middle" fill="#BAE6FD">PRESENCE</text>
    </g>

    <g transform="translate(404 384)">
      <rect width="144" height="38" rx="19"
            fill="#C084FC" fill-opacity=".055"
            stroke="#C084FC" stroke-opacity=".28"/>
      <circle cx="20" cy="19" r="4" fill="#C084FC"/>
      <text x="81" y="24" text-anchor="middle" fill="#E9D5FF">MEANING</text>
    </g>
  </g>

  <g transform="translate(972 272)">
    <circle r="160" fill="#06101B" stroke="#7DD3FC" stroke-opacity=".10"/>
    <circle r="132" fill="#081321" stroke="#C084FC" stroke-opacity=".12"/>
    <path d="M-130 -8C-84 -118 55 -150 128 -65C176 -9 164 82 95 128C25 174 -83 153 -127 82C-144 54 -147 22 -130 -8Z"
          fill="#081523" stroke="url(#accent)" stroke-opacity=".72" stroke-width="1.4"/>
    <path d="M-142 62C-65 12 43 2 135 54" stroke="#7DD3FC" stroke-opacity=".20" stroke-width="1.1"/>
    <path d="M-136 74C-40 115 60 112 138 62" stroke="#C084FC" stroke-opacity=".16" stroke-width="1"/>
    <circle cx="62" cy="88" r="35" fill="#09101D" stroke="#7DD3FC" stroke-opacity=".34"/>
    <circle cx="62" cy="88" r="20" fill="#0A1220" stroke="#C084FC" stroke-opacity=".28"/>
    <path d="M0 -122V122M-122 0H122" stroke="#D5DEEA" stroke-opacity=".05"/>
    <circle r="4" fill="#F8FAFC"/>

    <g font-family="ui-monospace,SFMono-Regular,Menlo,monospace"
       font-size="8.4" font-weight="700" letter-spacing="1">
      <circle cx="0" cy="-150" r="4" fill="#5EEAD4"/>
      <text x="0" y="-165" text-anchor="middle" fill="#9DE8DD">ENVIRONMENT</text>

      <circle cx="145" cy="-35" r="4" fill="#7DD3FC"/>
      <text x="160" y="-31" fill="#BDE8FB">HUMAN–AI</text>

      <circle cx="118" cy="112" r="4" fill="#C084FC"/>
      <text x="133" y="116" fill="#E9D5FF">MEMORY</text>

      <circle cx="-118" cy="112" r="4" fill="#7DD3FC"/>
      <text x="-133" y="116" text-anchor="end" fill="#BAE6FD">LANGUAGE</text>

      <circle cx="-145" cy="-35" r="4" fill="#C084FC"/>
      <text x="-160" y="-31" text-anchor="end" fill="#E9D5FF">SPECULATIVE</text>
    </g>
  </g>

  <text x="83" y="516" fill="#53667F"
        font-family="ui-monospace,SFMono-Regular,Menlo,monospace"
        font-size="10" font-weight="700" letter-spacing="1.8">
    PUBLIC SURFACE / PRIVATE DEPTH / PROVENANCE FIRST
  </text>

  <text x="1118" y="516" text-anchor="end" fill="#53667F"
        font-family="ui-monospace,SFMono-Regular,Menlo,monospace"
        font-size="10" font-weight="700" letter-spacing="1.8">
    NR-LAB / ATLAS 01
  </text>

  <rect x="1" y="1" width="1198" height="558" rx="31"
        stroke="#E2E8F0" stroke-opacity=".08"/>
</svg>